<svg width="38" height="56" viewBox="0 0 38 56" fill="none" xmlns="http://www.w3.org/2000/svg">
<path d="M8.12022 22.3583C4.18631 22.3583 1 19.1696 1 15.2381C1 11.3065 4.18631 8.11784 8.11784 8.12022C8.11784 4.18631 11.3065 1 15.2381 1C18.1449 1 20.6433 2.74124 21.7492 5.23965C21.9498 5.22054 22.1529 5.21099 22.3583 5.21099C25.6377 5.21099 28.3965 7.42994 29.2229 10.4467C29.7627 10.289 30.3336 10.203 30.9236 10.203C34.2795 10.203 37 12.926 37 16.2818C37 19.6377 34.2795 22.3583 30.9236 22.3583" stroke="white" stroke-width="2" stroke-linecap="round" stroke-linejoin="round"/>
<path d="M13 11.5V31H11.5" stroke="white" stroke-width="2" stroke-linecap="round" stroke-linejoin="round"/>
<path d="M25 13V31H28" stroke="white" stroke-width="2" stroke-linecap="round" stroke-linejoin="round"/>
<path d="M19 15.4L19 51.2L30.4 51.2" stroke="white" stroke-width="2" stroke-linecap="round" stroke-linejoin="round"/>
<circle cx="7" cy="31" r="3" stroke="white" stroke-width="2"/>
<circle cx="31" cy="31" r="3" stroke="white" stroke-width="2"/>
<circle cx="34" cy="51.2" r="3" stroke="white" stroke-width="2"/>
</svg>
